<?xml version="1.0" encoding="UTF-8"?>
<svg id="Layer_1" data-name="Layer 1" xmlns="http://www.w3.org/2000/svg" viewBox="0 0 800 800">
  <defs>
    <style>
      .cls-1 {
        fill: #6ad96d;
      }
    </style>
  </defs>
  <g>
    <path class="cls-1" d="m599.78,612.5c-19.15,0-34.72-15.58-34.72-34.72V222.22c0-19.15,15.58-34.72,34.72-34.72s34.72,15.58,34.72,34.72v355.55c0,19.15-15.58,34.73-34.72,34.73Z"/>
    <path class="cls-1" d="m599.78,200c12.27,0,22.22,9.95,22.22,22.22v355.55h0c0,12.28-9.95,22.23-22.22,22.23s-22.22-9.95-22.22-22.22V222.22c0-12.27,9.95-22.22,22.22-22.22m0-25c-26.04,0-47.22,21.18-47.22,47.22v355.56c0,26.04,21.18,47.22,47.22,47.22s47.22-21.18,47.22-47.22V222.22c0-26.04-21.18-47.22-47.22-47.22h0Z"/>
  </g>
  <path class="cls-1" d="m184.33,198.61c0-40.69,46.02-64.32,79.09-40.61l298.97,214.36c28.7,20.58,27.58,63.61-2.13,82.68l-298.97,191.79c-33.26,21.33-76.95-2.54-76.95-42.06V198.61Z"/>
</svg>