<?xml version="1.0" encoding="UTF-8"?>
<svg id="Layer_1" data-name="Layer 1" xmlns="http://www.w3.org/2000/svg" viewBox="0 0 800 800">
  <defs>
    <style>
      .cls-1 {
        fill-rule: evenodd;
      }

      .cls-1, .cls-2 {
        fill: #cbcbe2;
      }
    </style>
  </defs>
  <g id="SVGRepo_iconCarrier" data-name="SVGRepo iconCarrier">
    <g>
      <path class="cls-1" d="m300,676.67c-11.57,0-22.46-4.51-30.64-12.69-8.19-8.18-12.69-19.07-12.69-30.64s4.51-22.46,12.69-30.64l202.69-202.69-202.69-202.69c-16.9-16.9-16.9-44.39,0-61.28,8.19-8.18,19.07-12.69,30.64-12.69s22.46,4.51,30.64,12.69l233.33,233.33c16.9,16.9,16.9,44.39,0,61.28l-233.33,233.33c-8.19,8.18-19.07,12.69-30.64,12.69Z"/>
      <path class="cls-2" d="m300,133.33c8.53,0,17.06,3.25,23.57,9.76l233.33,233.33c13.02,13.02,13.02,34.12,0,47.14l-233.33,233.33c-6.51,6.51-15.04,9.76-23.57,9.76s-17.06-3.25-23.57-9.76c-13.02-13.02-13.02-34.12,0-47.14l209.76-209.76-209.76-209.76c-13.02-13.02-13.02-34.12,0-47.14,6.51-6.51,15.04-9.76,23.57-9.76m0-20c-14.25,0-27.64,5.55-37.71,15.62-20.79,20.79-20.79,54.63,0,75.42l195.62,195.62-195.62,195.62c-10.07,10.07-15.62,23.47-15.62,37.71s5.55,27.64,15.62,37.71c10.07,10.07,23.47,15.62,37.71,15.62s27.64-5.55,37.71-15.62l233.33-233.33c10.07-10.07,15.62-23.47,15.62-37.71s-5.55-27.64-15.62-37.71l-233.33-233.33c-10.07-10.07-23.47-15.62-37.71-15.62h0Z"/>
    </g>
  </g>
</svg>