<?xml version="1.0" encoding="UTF-8"?>
<svg id="Layer_1" data-name="Layer 1" xmlns="http://www.w3.org/2000/svg" viewBox="0 0 800 800">
  <defs>
    <style>
      .cls-1 {
        fill: #6ad96d;
      }
    </style>
  </defs>
  <g>
    <path class="cls-1" d="m630.47,640.76c-19.15,0-34.72-17.53-34.72-39.06V201.67c0-21.54,15.58-39.06,34.72-39.06s34.72,17.53,34.72,39.06v400.01c0,21.54-15.58,39.07-34.72,39.07h0Z"/>
    <path class="cls-1" d="m630.47,176.68c12.27,0,22.22,11.19,22.22,25v400.01h0c0,13.82-9.95,25.01-22.22,25.01s-22.22-11.19-22.22-25V201.67c0-13.8,9.95-25,22.22-25m0-28.13c-26.04,0-47.22,23.83-47.22,53.12v400.02c0,29.3,21.18,53.12,47.22,53.12s47.22-23.83,47.22-53.12V201.67c0-29.3-21.18-53.12-47.22-53.12h0Z"/>
  </g>
  <path class="cls-1" d="m184.33,198.61c0-40.69,46.02-64.32,79.09-40.61l298.97,214.36c28.7,20.58,27.58,63.61-2.13,82.68l-298.97,191.79c-33.26,21.33-76.95-2.54-76.95-42.06V198.61h-.01Z"/>
</svg>